<svg width="26px" height="73px" viewBox="707 892 26 73" version="1.1" xmlns="http://www.w3.org/2000/svg" xmlns:xlink="http://www.w3.org/1999/xlink">
    <!-- Generator: Sketch 42 (36781) - http://www.bohemiancoding.com/sketch -->
    <desc>Created with Sketch.</desc>
    <defs>
        <rect id="path-1" x="0" y="16" width="26" height="42" rx="13"/>
        <mask id="mask-2" maskContentUnits="userSpaceOnUse" maskUnits="objectBoundingBox" x="0" y="0" width="26" height="42" fill="white">
            <use xlink:href="#path-1"/>
        </mask>
    </defs>
    <g id="Group-9" stroke="none" stroke-width="1" fill="none" fill-rule="evenodd" transform="translate(707.000000, 892.000000)">
        <use id="Rectangle-14" stroke="#FFFFFF" mask="url(#mask-2)" stroke-width="4" xlink:href="#path-1"/>
        <path d="M26,33.9992839 L26,21.0014322 C26,13.8178561 20.1797017,8 13,8 C5.81871963,8 0,13.8209395 0,21.0014322 L0,33.9992839 L0,31 L2,31 L2,21.0014322 C2,14.9248768 6.92392123,10 13,10 C19.0762212,10 24,14.9235145 24,21.0014322 L24,31 L26,31 L26,33.9992839 Z" id="Rectangle-14-Copy" fill="#FFFFFF" fill-rule="nonzero" opacity="0.4"/>
        <path d="M26,25.9992839 L26,13.0014322 C26,5.81785607 20.1797017,0 13,0 C5.81871963,0 0,5.82093946 0,13.0014322 L0,25.9992839 L0,23 L2,23 L2,13.0014322 C2,6.92487678 6.92392123,2 13,2 C19.0762212,2 24,6.92351451 24,13.0014322 L24,23 L26,23 L26,25.9992839 Z" id="Rectangle-14-Copy-2" fill="#FFFFFF" fill-rule="nonzero" opacity="0.1"/>
        <path d="M26,65.9992839 L26,53.0014322 C26,45.8178561 20.1797017,40 13,40 C5.81871963,40 0,45.8209395 0,53.0014322 L0,65.9992839 L0,63 L2,63 L2,53.0014322 C2,46.9248768 6.92392123,42 13,42 C19.0762212,42 24,46.9235145 24,53.0014322 L24,63 L26,63 L26,65.9992839 Z" id="Rectangle-14-Copy-4" fill="#FFFFFF" fill-rule="nonzero" opacity="0.4" transform="translate(13.000000, 52.999642) scale(1, -1) translate(-13.000000, -52.999642) "/>
        <path d="M26,72.9992839 L26,60.0014322 C26,52.8178561 20.1797017,47 13,47 C5.81871963,47 0,52.8209395 0,60.0014322 L0,72.9992839 L0,70 L2,70 L2,60.0014322 C2,53.9248768 6.92392123,49 13,49 C19.0762212,49 24,53.9235145 24,60.0014322 L24,70 L26,70 L26,72.9992839 Z" id="Rectangle-14-Copy-3" fill="#FFFFFF" fill-rule="nonzero" opacity="0.1" transform="translate(13.000000, 59.999642) scale(1, -1) translate(-13.000000, -59.999642) "/>
        <rect id="Rectangle-15" fill="#FFFFFF" x="12" y="26" width="2" height="10"/>
    </g>
</svg>