<?xml version="1.0" encoding="utf-8"?>
<!-- Generator: Adobe Illustrator 21.1.0, SVG Export Plug-In . SVG Version: 6.00 Build 0)  -->
<svg version="1.1" id="Слой_1" xmlns="http://www.w3.org/2000/svg" xmlns:xlink="http://www.w3.org/1999/xlink" x="0px" y="0px"
	 viewBox="0 0 844.7 394.5" style="enable-background:new 0 0 844.7 394.5;" xml:space="preserve">
<style type="text/css">
	.st1{fill:#ffffff;}
	.st2{fill:#ffffff;}
	.st3{fill:#ffffff;}
</style>
<g>
	<rect x="0.7" y="-511.5" class="st0" width="844" height="396"/>
</g>
<g>
	<g>
		<path class="st1" d="M772.1-451.3v282.7h-700v-282.7H772.1 M785.1-464.3h-726v308.7h726V-464.3L785.1-464.3z"/>
	</g>
</g>
<g>
	<path class="st2" d="M130.7-301.2c-12.3-12.3-18.4-27.2-18.4-44.8c0-17.6,6.1-32.6,18.4-45c12.3-12.4,27.2-18.6,44.8-18.6
		s32.6,6.2,44.9,18.6c12.3,12.4,18.5,27.4,18.5,45c0,17.6-6.2,32.5-18.5,44.8c-12.3,12.3-27.3,18.4-44.9,18.4
		S142.9-288.9,130.7-301.2z M147-374.6c-7.9,8-11.9,17.5-11.9,28.7c0,11.1,4,20.7,11.9,28.5c7.9,7.9,17.4,11.8,28.4,11.8
		c11.1,0,20.7-4,28.6-11.9s11.9-17.4,11.9-28.4c0-11.1-4-20.7-12-28.7c-8-8-17.5-12-28.5-12C164.4-386.6,154.9-382.6,147-374.6z"/>
	<path class="st2" d="M257.7-287.9v-116.5c0-0.9,0.3-1.7,1-2.4c0.7-0.6,1.5-1,2.5-1h44.3c11.5,0,21.5,3.8,29.8,11.4
		c8.3,7.6,12.4,16.8,12.4,27.5c0,10.9-4.1,20.2-12.3,28c-8.2,7.7-18.1,11.6-29.7,11.6h-23.5v41.4c0,0.8-0.3,1.6-1,2.3
		c-0.7,0.7-1.5,1.1-2.5,1.1h-17.3c-1,0-1.9-0.3-2.5-1C258.1-286.1,257.7-286.9,257.7-287.9z M282.2-350.7H304
		c5.3,0,9.8-1.8,13.7-5.3c3.8-3.5,5.7-7.9,5.7-13c0-4.8-1.9-8.9-5.7-12.1c-3.8-3.3-8.4-4.9-13.7-4.9h-21.8V-350.7z"/>
	<path class="st2" d="M377.7-301.2c-12.3-12.3-18.4-27.2-18.4-44.8c0-17.6,6.1-32.6,18.4-45c12.3-12.4,27.2-18.6,44.8-18.6
		c17.6,0,32.6,6.2,44.9,18.6c12.3,12.4,18.5,27.4,18.5,45c0,17.6-6.2,32.5-18.5,44.8c-12.3,12.3-27.3,18.4-44.9,18.4
		C404.9-282.8,389.9-288.9,377.7-301.2z M394-374.6c-7.9,8-11.9,17.5-11.9,28.7c0,11.1,4,20.7,11.9,28.5
		c7.9,7.9,17.4,11.8,28.4,11.8c11.1,0,20.7-4,28.6-11.9s11.9-17.4,11.9-28.4c0-11.1-4-20.7-12-28.7c-8-8-17.5-12-28.5-12
		C411.4-386.6,402-382.6,394-374.6z"/>
	<path class="st2" d="M503.6-287.9v-116.5c0-0.9,0.3-1.7,1-2.4c0.6-0.6,1.4-1,2.4-1h50.3c10.6,0,19.6,3.7,27.1,11.1
		c7.5,7.4,11.3,16.3,11.3,26.8c0,8-2.4,15.1-7.1,21.4c-4.8,6.3-11.1,11-18.9,14.2l24.1,44.7c0.7,1.2,0.7,2.3,0.1,3.4
		c-0.6,1.1-1.7,1.7-3.1,1.7h-18.5c-1.3,0-2.2-0.5-2.8-1.6L546-332.8h-19.5v44.9c0,0.8-0.3,1.6-1,2.3c-0.6,0.7-1.4,1.1-2.4,1.1h-16.2
		c-0.9,0-1.7-0.3-2.4-1C503.9-286.1,503.6-286.9,503.6-287.9z M526.6-351.6h28.7c4.7,0,8.8-1.8,12.2-5.3c3.5-3.5,5.2-7.7,5.2-12.7
		c0-4.7-1.7-8.7-5.2-12.1c-3.5-3.3-7.5-5-12.2-5h-28.7V-351.6z"/>
	<path class="st2" d="M611.4-284.5c-1.4,0-2.4-0.5-3-1.4c-0.7-0.9-0.7-2-0.1-3.2l57.5-118.4c0.6-1.3,1.7-1.9,3.1-1.9h1.8
		c1.5,0,2.5,0.6,3.1,1.9l56.9,118.4c0.6,1.2,0.6,2.2-0.1,3.2c-0.7,0.9-1.7,1.4-3,1.4h-16.1c-2.3,0-4.1-1.2-5.4-3.5l-9.1-19h-55.3
		l-9.1,19c-1,2.3-2.8,3.5-5.4,3.5H611.4z M651-326.6h37.1l-18.5-38.7h-0.6L651-326.6z"/>
</g>
<g>
	<path class="st1" d="M125.1-213.9c-0.9-0.8-1.1-1.6-0.5-2.5c0.1-0.2,0.3-0.4,0.6-0.7c0.2-0.3,0.4-0.6,0.5-0.7
		c0.9-1.2,1.8-1.4,2.6-0.7c4.4,3.8,8.7,5.7,12.7,5.7c2.9,0,5.4-0.8,7.2-2.4c1.9-1.6,2.8-3.5,2.8-5.9c0-2.4-1-4.6-3.1-6.3
		c-2.1-1.8-5.4-3.6-10-5.5c-4.6-2-8-4.1-10-6.3c-2.1-2.2-3.2-5.3-3.2-9.3c0-1.4,0.3-2.8,0.9-4.3c0.6-1.5,1.4-2.9,2.6-4.3
		c1.2-1.4,2.9-2.5,5-3.5c2.2-0.9,4.7-1.3,7.5-1.3c2.2,0,4.4,0.3,6.5,1c2.1,0.7,3.7,1.3,4.8,1.9l1.6,1c0.3,0.1,0.6,0.4,0.8,0.8
		s0,1-0.3,1.7c-0.1,0.2-0.3,0.4-0.4,0.7c-0.2,0.3-0.4,0.6-0.5,0.7c-0.7,1-1.6,1.3-2.6,0.7c-4-2.3-7.3-3.4-9.8-3.4
		c-3.6,0-6.2,0.9-7.8,2.6c-1.7,1.8-2.5,3.6-2.5,5.6c0,2.4,0.8,4.4,2.5,6c1.7,1.6,4.2,3.1,7.6,4.5c5.7,2.4,10,4.7,12.6,7.1
		c2.7,2.4,4,5.5,4,9.6c0,3.9-1.6,7.1-4.8,9.6c-3.2,2.6-7,3.9-11.4,3.9c-2.7,0-5.3-0.5-7.8-1.5c-2.6-1-4.4-1.8-5.4-2.5
		C126.7-212.5,125.8-213.2,125.1-213.9z"/>
	<path class="st1" d="M196.2-215.6c-5.2-5.2-7.8-11.6-7.8-19.1s2.6-13.9,7.8-19.2c5.2-5.3,11.6-7.9,19.1-7.9s13.9,2.6,19.1,7.9
		c5.3,5.3,7.9,11.7,7.9,19.2s-2.6,13.9-7.9,19.1c-5.3,5.2-11.6,7.8-19.1,7.8S201.5-210.4,196.2-215.6z M200-250.1
		c-4.3,4.3-6.4,9.4-6.4,15.4s2.1,11.1,6.4,15.3c4.2,4.3,9.3,6.4,15.3,6.4c5.9,0,11.1-2.1,15.3-6.4c4.3-4.2,6.4-9.3,6.4-15.3
		s-2.1-11.1-6.4-15.4c-4.3-4.3-9.4-6.5-15.3-6.5C209.4-256.5,204.3-254.4,200-250.1z"/>
	<path class="st1" d="M278-210v-49.7c0-0.4,0.1-0.7,0.4-1c0.3-0.3,0.6-0.4,1-0.4h2.9c0.4,0,0.7,0.2,1,0.5c0.3,0.3,0.4,0.6,0.4,1v46
		h21.6c0.4,0,0.7,0.1,1,0.4c0.3,0.3,0.4,0.6,0.4,1v2.2c0,0.4-0.1,0.7-0.4,1c-0.3,0.3-0.6,0.4-1,0.4h-25.9c-0.4,0-0.7-0.1-1-0.4
		C278.2-209.2,278-209.6,278-210z"/>
	<path class="st1" d="M338.4-227.9v-31.7c0-0.3,0.1-0.7,0.4-1c0.3-0.3,0.6-0.5,1-0.5h2.8c0.4,0,0.7,0.1,1,0.4c0.3,0.3,0.4,0.6,0.4,1
		v31.3c0,4.4,1.3,8,3.8,10.9c2.5,2.9,6,4.3,10.3,4.3c4.3,0,7.8-1.4,10.4-4.3c2.6-2.9,3.9-6.5,3.9-10.8v-31.4c0-0.4,0.1-0.7,0.4-1
		c0.3-0.3,0.6-0.4,1-0.4h2.8c0.4,0,0.7,0.2,1,0.5c0.3,0.3,0.4,0.6,0.4,1v31.7c0,5.8-1.9,10.5-5.6,14.4c-3.7,3.8-8.5,5.7-14.4,5.7
		c-5.8,0-10.6-1.9-14.3-5.7C340.3-217.3,338.4-222.1,338.4-227.9z"/>
	<path class="st1" d="M424.4-210v-46h-13.1c-0.4,0-0.7-0.1-1-0.4c-0.3-0.3-0.4-0.6-0.4-1v-2.2c0-0.4,0.1-0.7,0.4-1
		c0.3-0.3,0.6-0.4,1-0.4h31.8c0.4,0,0.7,0.1,1,0.4c0.3,0.3,0.4,0.6,0.4,1v2.2c0,0.4-0.1,0.7-0.4,1c-0.3,0.3-0.6,0.4-1,0.4h-13v46
		c0,0.4-0.1,0.7-0.4,1c-0.3,0.3-0.6,0.5-1,0.5h-2.8c-0.4,0-0.7-0.2-1-0.5C424.6-209.3,424.4-209.6,424.4-210z"/>
	<path class="st1" d="M477.1-210v-49.7c0-0.3,0.1-0.7,0.4-1c0.3-0.3,0.6-0.5,1-0.5h3c0.3,0,0.7,0.2,1,0.5s0.5,0.6,0.5,1v49.7
		c0,0.4-0.2,0.7-0.5,1s-0.6,0.5-1,0.5h-3c-0.4,0-0.7-0.2-1-0.5C477.2-209.3,477.1-209.6,477.1-210z"/>
	<path class="st1" d="M526.5-215.6c-5.2-5.2-7.8-11.6-7.8-19.1s2.6-13.9,7.8-19.2c5.2-5.3,11.6-7.9,19.1-7.9s13.9,2.6,19.1,7.9
		c5.3,5.3,7.9,11.7,7.9,19.2s-2.6,13.9-7.9,19.1c-5.3,5.2-11.6,7.8-19.1,7.8S531.7-210.4,526.5-215.6z M530.3-250.1
		c-4.3,4.3-6.4,9.4-6.4,15.4s2.1,11.1,6.4,15.3c4.2,4.3,9.3,6.4,15.3,6.4c5.9,0,11.1-2.1,15.3-6.4c4.3-4.2,6.4-9.3,6.4-15.3
		s-2.1-11.1-6.4-15.4c-4.3-4.3-9.4-6.5-15.3-6.5C539.6-256.5,534.5-254.4,530.3-250.1z"/>
	<path class="st1" d="M608.3-210v-50.5c0-0.3,0.1-0.7,0.4-0.9c0.3-0.3,0.6-0.4,1-0.4h1.9l33.8,42.2h0.1v-40c0-0.4,0.1-0.7,0.4-1
		c0.3-0.3,0.6-0.4,1-0.4h2.6c0.3,0,0.7,0.2,1,0.5s0.5,0.6,0.5,1v50.5c0,0.3-0.1,0.7-0.4,0.9c-0.3,0.3-0.6,0.4-1,0.4h-1.3l-34.4-43
		h-0.1v40.8c0,0.4-0.1,0.7-0.4,1c-0.3,0.3-0.6,0.4-1,0.4h-2.6c-0.4,0-0.7-0.2-1-0.5C608.4-209.3,608.3-209.6,608.3-210z"/>
	<path class="st1" d="M687.6-213.9c-0.9-0.8-1-1.6-0.4-2.5c0.1-0.2,0.3-0.4,0.6-0.7c0.3-0.3,0.4-0.6,0.5-0.7
		c0.9-1.2,1.8-1.4,2.6-0.7c4.4,3.8,8.7,5.7,12.7,5.7c2.9,0,5.4-0.8,7.2-2.4c1.9-1.6,2.8-3.5,2.8-5.9c0-2.4-1-4.6-3.1-6.3
		c-2.1-1.8-5.4-3.6-10-5.5c-4.6-2-8-4.1-10-6.3c-2.1-2.2-3.2-5.3-3.2-9.3c0-1.4,0.3-2.8,0.9-4.3c0.6-1.5,1.5-2.9,2.6-4.3
		c1.2-1.4,2.9-2.5,5-3.5c2.2-0.9,4.7-1.3,7.5-1.3c2.2,0,4.4,0.3,6.5,1c2.1,0.7,3.7,1.3,4.8,1.9l1.6,1c0.3,0.1,0.6,0.4,0.8,0.8
		c0.2,0.4,0,1-0.3,1.7c-0.1,0.2-0.3,0.4-0.5,0.7c-0.2,0.3-0.3,0.6-0.4,0.7c-0.7,1-1.6,1.3-2.6,0.7c-4.1-2.3-7.3-3.4-9.8-3.4
		c-3.6,0-6.2,0.9-7.8,2.6c-1.7,1.8-2.5,3.6-2.5,5.6c0,2.4,0.8,4.4,2.5,6c1.7,1.6,4.2,3.1,7.6,4.5c5.8,2.4,10,4.7,12.6,7.1
		c2.7,2.4,4,5.5,4,9.6c0,3.9-1.6,7.1-4.8,9.6c-3.2,2.6-7,3.9-11.4,3.9c-2.7,0-5.3-0.5-7.8-1.5c-2.6-1-4.4-1.8-5.4-2.5
		C689.2-212.5,688.3-213.2,687.6-213.9z"/>
</g>
<g>
	<path class="st3" d="M772.1,60.1v282.7h-700V60.1H772.1 M785.1,47.1h-726v308.7h726V47.1L785.1,47.1z"/>
</g>
<g>
	<path class="st2" d="M130.7,210.3c-12.3-12.3-18.4-27.2-18.4-44.8c0-17.6,6.1-32.6,18.4-45c12.3-12.4,27.2-18.6,44.8-18.6
		s32.6,6.2,44.9,18.6c12.3,12.4,18.5,27.4,18.5,45c0,17.6-6.2,32.5-18.5,44.8c-12.3,12.3-27.3,18.4-44.9,18.4
		S142.9,222.6,130.7,210.3z M147,136.8c-7.9,8-11.9,17.5-11.9,28.7c0,11.1,4,20.7,11.9,28.5c7.9,7.9,17.4,11.8,28.4,11.8
		c11.1,0,20.7-4,28.6-11.9s11.9-17.4,11.9-28.4c0-11.1-4-20.7-12-28.7c-8-8-17.5-12-28.5-12C164.4,124.9,154.9,128.8,147,136.8z"/>
	<path class="st2" d="M257.7,223.6V107.1c0-0.9,0.3-1.7,1-2.4c0.7-0.6,1.5-1,2.5-1h44.3c11.5,0,21.5,3.8,29.8,11.4
		c8.3,7.6,12.4,16.8,12.4,27.5c0,10.9-4.1,20.2-12.3,28c-8.2,7.7-18.1,11.6-29.7,11.6h-23.5v41.4c0,0.8-0.3,1.6-1,2.3
		c-0.7,0.7-1.5,1.1-2.5,1.1h-17.3c-1,0-1.9-0.3-2.5-1C258.1,225.3,257.7,224.5,257.7,223.6z M282.2,160.8H304
		c5.3,0,9.8-1.8,13.7-5.3c3.8-3.5,5.7-7.9,5.7-13c0-4.8-1.9-8.9-5.7-12.1c-3.8-3.3-8.4-4.9-13.7-4.9h-21.8V160.8z"/>
	<path class="st2" d="M377.7,210.3c-12.3-12.3-18.4-27.2-18.4-44.8c0-17.6,6.1-32.6,18.4-45c12.3-12.4,27.2-18.6,44.8-18.6
		c17.6,0,32.6,6.2,44.9,18.6c12.3,12.4,18.5,27.4,18.5,45c0,17.6-6.2,32.5-18.5,44.8c-12.3,12.3-27.3,18.4-44.9,18.4
		C404.9,228.7,389.9,222.6,377.7,210.3z M394,136.8c-7.9,8-11.9,17.5-11.9,28.7c0,11.1,4,20.7,11.9,28.5
		c7.9,7.9,17.4,11.8,28.4,11.8c11.1,0,20.7-4,28.6-11.9s11.9-17.4,11.9-28.4c0-11.1-4-20.7-12-28.7c-8-8-17.5-12-28.5-12
		C411.4,124.9,402,128.8,394,136.8z"/>
	<path class="st2" d="M503.6,223.6V107.1c0-0.9,0.3-1.7,1-2.4c0.6-0.6,1.4-1,2.4-1h50.3c10.6,0,19.6,3.7,27.1,11.1
		c7.5,7.4,11.3,16.3,11.3,26.8c0,8-2.4,15.1-7.1,21.4c-4.8,6.3-11.1,11-18.9,14.2l24.1,44.7c0.7,1.2,0.7,2.3,0.1,3.4
		c-0.6,1.1-1.7,1.7-3.1,1.7h-18.5c-1.3,0-2.2-0.5-2.8-1.6L546,178.7h-19.5v44.9c0,0.8-0.3,1.6-1,2.3c-0.6,0.7-1.4,1.1-2.4,1.1h-16.2
		c-0.9,0-1.7-0.3-2.4-1C503.9,225.3,503.6,224.5,503.6,223.6z M526.6,159.9h28.7c4.7,0,8.8-1.8,12.2-5.3c3.5-3.5,5.2-7.7,5.2-12.7
		c0-4.7-1.7-8.7-5.2-12.1c-3.5-3.3-7.5-5-12.2-5h-28.7V159.9z"/>
	<path class="st2" d="M611.4,226.9c-1.4,0-2.4-0.5-3-1.4c-0.7-0.9-0.7-2-0.1-3.2l57.5-118.4c0.6-1.3,1.7-1.9,3.1-1.9h1.8
		c1.5,0,2.5,0.6,3.1,1.9l56.9,118.4c0.6,1.2,0.6,2.2-0.1,3.2c-0.7,0.9-1.7,1.4-3,1.4h-16.1c-2.3,0-4.1-1.2-5.4-3.5l-9.1-19h-55.3
		l-9.1,19c-1,2.3-2.8,3.5-5.4,3.5H611.4z M651,184.9h37.1l-18.5-38.7h-0.6L651,184.9z"/>
</g>
<g>
	<path class="st3" d="M125.1,297.6c-0.9-0.8-1.1-1.6-0.5-2.5c0.1-0.2,0.3-0.4,0.6-0.7c0.2-0.3,0.4-0.6,0.5-0.7
		c0.9-1.2,1.8-1.4,2.6-0.7c4.4,3.8,8.7,5.7,12.7,5.7c2.9,0,5.4-0.8,7.2-2.4c1.9-1.6,2.8-3.5,2.8-5.9c0-2.4-1-4.6-3.1-6.3
		c-2.1-1.8-5.4-3.6-10-5.5c-4.6-2-8-4.1-10-6.3c-2.1-2.2-3.2-5.3-3.2-9.3c0-1.4,0.3-2.8,0.9-4.3c0.6-1.5,1.4-2.9,2.6-4.3
		c1.2-1.4,2.9-2.5,5-3.5c2.2-0.9,4.7-1.3,7.5-1.3c2.2,0,4.4,0.3,6.5,1c2.1,0.7,3.7,1.3,4.8,1.9l1.6,1c0.3,0.1,0.6,0.4,0.8,0.8
		c0.1,0.4,0,1-0.3,1.7c-0.1,0.1-0.3,0.4-0.4,0.7c-0.2,0.3-0.4,0.6-0.5,0.7c-0.7,1-1.6,1.3-2.6,0.7c-4-2.3-7.3-3.5-9.8-3.5
		c-3.6,0-6.2,0.9-7.8,2.6c-1.7,1.8-2.5,3.6-2.5,5.6c0,2.4,0.8,4.4,2.5,6c1.7,1.6,4.2,3.1,7.6,4.5c5.7,2.4,10,4.7,12.6,7
		c2.7,2.4,4,5.6,4,9.6c0,3.9-1.6,7.1-4.8,9.6c-3.2,2.6-7,3.9-11.4,3.9c-2.7,0-5.3-0.5-7.8-1.5c-2.6-1-4.4-1.8-5.4-2.5
		C126.7,299,125.8,298.3,125.1,297.6z"/>
	<path class="st3" d="M196.2,295.9c-5.2-5.2-7.8-11.6-7.8-19.1s2.6-13.9,7.8-19.2c5.2-5.3,11.6-7.9,19.1-7.9s13.9,2.6,19.1,7.9
		c5.3,5.3,7.9,11.7,7.9,19.2s-2.6,13.9-7.9,19.1c-5.3,5.2-11.6,7.8-19.1,7.8S201.5,301.1,196.2,295.9z M200,261.4
		c-4.3,4.3-6.4,9.4-6.4,15.4s2.1,11.1,6.4,15.3c4.2,4.3,9.3,6.4,15.3,6.4c5.9,0,11.1-2.1,15.3-6.4c4.3-4.2,6.4-9.3,6.4-15.3
		s-2.1-11.1-6.4-15.4c-4.3-4.3-9.4-6.5-15.3-6.5C209.4,254.9,204.3,257.1,200,261.4z"/>
	<path class="st3" d="M278,301.5v-49.7c0-0.4,0.1-0.7,0.4-1c0.3-0.3,0.6-0.4,1-0.4h2.9c0.4,0,0.7,0.1,1,0.5c0.3,0.3,0.4,0.6,0.4,1
		v46h21.6c0.4,0,0.7,0.1,1,0.4c0.3,0.3,0.4,0.6,0.4,1v2.2c0,0.4-0.1,0.7-0.4,1c-0.3,0.3-0.6,0.4-1,0.4h-25.9c-0.4,0-0.7-0.1-1-0.4
		C278.2,302.3,278,301.9,278,301.5z"/>
	<path class="st3" d="M338.4,283.6v-31.7c0-0.3,0.1-0.7,0.4-1c0.3-0.3,0.6-0.5,1-0.5h2.8c0.4,0,0.7,0.1,1,0.4c0.3,0.3,0.4,0.6,0.4,1
		v31.3c0,4.4,1.3,8,3.8,10.9c2.5,2.9,6,4.3,10.3,4.3c4.3,0,7.8-1.4,10.4-4.3c2.6-2.8,3.9-6.4,3.9-10.8v-31.4c0-0.4,0.1-0.7,0.4-1
		c0.3-0.3,0.6-0.4,1-0.4h2.8c0.4,0,0.7,0.1,1,0.5c0.3,0.3,0.4,0.6,0.4,1v31.7c0,5.8-1.9,10.5-5.6,14.4c-3.7,3.8-8.5,5.7-14.4,5.7
		c-5.8,0-10.6-1.9-14.3-5.7C340.3,294.1,338.4,289.3,338.4,283.6z"/>
	<path class="st3" d="M424.4,301.5v-46.1h-13.1c-0.4,0-0.7-0.1-1-0.4c-0.3-0.3-0.4-0.6-0.4-1v-2.2c0-0.4,0.1-0.7,0.4-1
		c0.3-0.3,0.6-0.4,1-0.4h31.8c0.4,0,0.7,0.1,1,0.4c0.3,0.3,0.4,0.6,0.4,1v2.2c0,0.4-0.1,0.7-0.4,1c-0.3,0.3-0.6,0.4-1,0.4h-13v46.1
		c0,0.3-0.1,0.7-0.4,1c-0.3,0.3-0.6,0.5-1,0.5h-2.8c-0.4,0-0.7-0.2-1-0.5C424.6,302.2,424.4,301.9,424.4,301.5z"/>
	<path class="st3" d="M477.1,301.5v-49.7c0-0.3,0.1-0.7,0.4-1c0.3-0.3,0.6-0.5,1-0.5h3c0.3,0,0.7,0.1,1,0.5c0.3,0.3,0.5,0.6,0.5,1
		v49.7c0,0.3-0.2,0.7-0.5,1s-0.6,0.5-1,0.5h-3c-0.4,0-0.7-0.2-1-0.5C477.2,302.2,477.1,301.9,477.1,301.5z"/>
	<path class="st3" d="M526.5,295.9c-5.2-5.2-7.8-11.6-7.8-19.1s2.6-13.9,7.8-19.2c5.2-5.3,11.6-7.9,19.1-7.9s13.9,2.6,19.1,7.9
		c5.3,5.3,7.9,11.7,7.9,19.2s-2.6,13.9-7.9,19.1c-5.3,5.2-11.6,7.8-19.1,7.8S531.7,301.1,526.5,295.9z M530.3,261.4
		c-4.3,4.3-6.4,9.4-6.4,15.4s2.1,11.1,6.4,15.3c4.2,4.3,9.3,6.4,15.3,6.4c5.9,0,11.1-2.1,15.3-6.4c4.3-4.2,6.4-9.3,6.4-15.3
		s-2.1-11.1-6.4-15.4c-4.3-4.3-9.4-6.5-15.3-6.5C539.6,254.9,534.5,257.1,530.3,261.4z"/>
	<path class="st3" d="M608.3,301.5V251c0-0.3,0.1-0.7,0.4-0.9c0.3-0.3,0.6-0.4,1-0.4h1.9l33.8,42.1h0.1v-40c0-0.4,0.1-0.7,0.4-1
		c0.3-0.3,0.6-0.4,1-0.4h2.6c0.3,0,0.7,0.1,1,0.5c0.3,0.3,0.5,0.6,0.5,1v50.5c0,0.4-0.1,0.7-0.4,0.9c-0.3,0.3-0.6,0.4-1,0.4h-1.3
		l-34.4-43h-0.1v40.8c0,0.4-0.1,0.7-0.4,1c-0.3,0.3-0.6,0.4-1,0.4h-2.6c-0.4,0-0.7-0.2-1-0.5C608.4,302.2,608.3,301.9,608.3,301.5z"
		/>
	<path class="st3" d="M687.6,297.6c-0.9-0.8-1-1.6-0.4-2.5c0.1-0.2,0.3-0.4,0.6-0.7c0.3-0.3,0.4-0.6,0.5-0.7
		c0.9-1.2,1.8-1.4,2.6-0.7c4.4,3.8,8.7,5.7,12.7,5.7c2.9,0,5.4-0.8,7.2-2.4c1.9-1.6,2.8-3.5,2.8-5.9c0-2.4-1-4.6-3.1-6.3
		c-2.1-1.8-5.4-3.6-10-5.5c-4.6-2-8-4.1-10-6.3c-2.1-2.2-3.2-5.3-3.2-9.3c0-1.4,0.3-2.8,0.9-4.3c0.6-1.5,1.5-2.9,2.6-4.3
		c1.2-1.4,2.9-2.5,5-3.5c2.2-0.9,4.7-1.3,7.5-1.3c2.2,0,4.4,0.3,6.5,1c2.1,0.7,3.7,1.3,4.8,1.9l1.6,1c0.3,0.1,0.6,0.4,0.8,0.8
		c0.2,0.4,0,1-0.3,1.7c-0.1,0.1-0.3,0.4-0.5,0.7c-0.2,0.3-0.3,0.6-0.4,0.7c-0.7,1-1.6,1.3-2.6,0.7c-4.1-2.3-7.3-3.5-9.8-3.5
		c-3.6,0-6.2,0.9-7.8,2.6c-1.7,1.8-2.5,3.6-2.5,5.6c0,2.4,0.8,4.4,2.5,6c1.7,1.6,4.2,3.1,7.6,4.5c5.8,2.4,10,4.7,12.6,7
		c2.7,2.4,4,5.6,4,9.6c0,3.9-1.6,7.1-4.8,9.6c-3.2,2.6-7,3.9-11.4,3.9c-2.7,0-5.3-0.5-7.8-1.5c-2.6-1-4.4-1.8-5.4-2.5
		C689.2,299,688.3,298.3,687.6,297.6z"/>
</g>
</svg>
